<svg width="91" height="46" viewBox="0 0 91 46" fill="none" xmlns="http://www.w3.org/2000/svg">
<path fill-rule="evenodd" clip-rule="evenodd" d="M71.5985 8.03635C70.5432 5.48851 70 2.75776 70 0H68C68 3.0204 68.5949 6.01123 69.7508 8.80172C70.9066 11.5922 72.6008 14.1277 74.7365 16.2635C76.8723 18.3992 79.4078 20.0934 82.1983 21.2492C84.9888 22.4051 87.9796 23 91 23L91 21C88.2422 21 85.5115 20.4568 82.9636 19.4015C80.4158 18.3461 78.1008 16.7993 76.1508 14.8492C74.2007 12.8992 72.6539 10.5842 71.5985 8.03635Z" fill="#04090F"/>
<path fill-rule="evenodd" clip-rule="evenodd" d="M71.5985 37.9636C70.5432 40.5115 70 43.2422 70 46H68C68 42.9796 68.5949 39.9888 69.7508 37.1983C70.9066 34.4078 72.6008 31.8723 74.7365 29.7365C76.8723 27.6008 79.4078 25.9066 82.1983 24.7508C84.9888 23.5949 87.9796 23 91 23L91 25C88.2422 25 85.5115 25.5432 82.9636 26.5985C80.4158 27.6539 78.1008 29.2007 76.1508 31.1508C74.2007 33.1008 72.6539 35.4158 71.5985 37.9636Z" fill="#04090F"/>
<path d="M0 22H90V24H0V22Z" fill="#04090F"/>
</svg>
