<svg width="56" height="46" viewBox="0 0 56 46" fill="none" xmlns="http://www.w3.org/2000/svg">
<path fill-rule="evenodd" clip-rule="evenodd" d="M36.5985 8.03635C35.5432 5.48851 35 2.75776 35 0H33C33 3.0204 33.5949 6.01123 34.7508 8.80172C35.9066 11.5922 37.6008 14.1277 39.7365 16.2635C41.8723 18.3992 44.4078 20.0934 47.1983 21.2492C49.9888 22.4051 52.9796 23 56 23L56 21C53.2422 21 50.5115 20.4568 47.9636 19.4015C45.4158 18.3461 43.1008 16.7993 41.1508 14.8492C39.2007 12.8992 37.6539 10.5842 36.5985 8.03635Z" fill="#04090F"/>
<path fill-rule="evenodd" clip-rule="evenodd" d="M36.5985 37.9636C35.5432 40.5115 35 43.2422 35 46H33C33 42.9796 33.5949 39.9888 34.7508 37.1983C35.9066 34.4078 37.6008 31.8723 39.7365 29.7365C41.8723 27.6008 44.4078 25.9066 47.1983 24.7508C49.9888 23.5949 52.9796 23 56 23L56 25C53.2422 25 50.5115 25.5432 47.9636 26.5985C45.4158 27.6539 43.1008 29.2007 41.1508 31.1508C39.2007 33.1008 37.6539 35.4158 36.5985 37.9636Z" fill="#04090F"/>
<path d="M0 22H55V24H0V22Z" fill="#04090F"/>
</svg>
