<svg width="56" height="46" viewBox="0 0 56 46" fill="none" xmlns="http://www.w3.org/2000/svg">
<path fill-rule="evenodd" clip-rule="evenodd" d="M19.4015 8.03635C20.4568 5.48851 21 2.75776 21 0H23C23 3.0204 22.4051 6.01123 21.2492 8.80172C20.0934 11.5922 18.3992 14.1277 16.2635 16.2635C14.1277 18.3992 11.5922 20.0934 8.80172 21.2492C6.01123 22.4051 3.0204 23 0 23L1.90735e-06 21C2.75776 21 5.48852 20.4568 8.03635 19.4015C10.5842 18.3461 12.8992 16.7993 14.8492 14.8492C16.7993 12.8992 18.3461 10.5842 19.4015 8.03635Z" fill="#04090F"/>
<path fill-rule="evenodd" clip-rule="evenodd" d="M19.4015 37.9636C20.4568 40.5115 21 43.2422 21 46H23C23 42.9796 22.4051 39.9888 21.2492 37.1983C20.0934 34.4078 18.3992 31.8723 16.2635 29.7365C14.1277 27.6008 11.5922 25.9066 8.80172 24.7508C6.01123 23.5949 3.0204 23 0 23L1.90735e-06 25C2.75776 25 5.48852 25.5432 8.03635 26.5985C10.5842 27.6539 12.8992 29.2007 14.8492 31.1508C16.7993 33.1008 18.3461 35.4158 19.4015 37.9636Z" fill="#04090F"/>
<path d="M56 22H1V24H56V22Z" fill="#04090F"/>
</svg>
