<svg width="795" height="1118" viewBox="0 0 795 1118" fill="none" xmlns="http://www.w3.org/2000/svg">
<path fill-rule="evenodd" clip-rule="evenodd" d="M444.139 421.236C425.066 375.191 415.25 325.839 415.25 276L407.544 276C407.544 326.851 417.559 377.205 437.019 424.185C456.479 471.166 485.002 513.853 520.96 549.811C556.917 585.768 599.604 614.291 646.585 633.751C693.566 653.211 743.919 663.227 794.77 663.227L794.77 655.521C744.931 655.521 695.58 645.704 649.534 626.632C603.488 607.559 561.65 579.604 526.409 544.362C491.167 509.12 463.212 467.282 444.139 421.236Z" fill="white"/>
<path fill-rule="evenodd" clip-rule="evenodd" d="M348.631 421.236C367.704 375.191 377.521 325.839 377.521 276L385.227 276C385.227 326.851 375.211 377.205 355.751 424.185C336.291 471.166 307.768 513.853 271.811 549.811C235.853 585.768 193.166 614.291 146.185 633.751C99.2047 653.211 48.8513 663.227 -2.00002 663.227L-2.00002 655.521C47.8393 655.521 97.1907 645.704 143.236 626.632C189.282 607.559 231.12 579.604 266.362 544.362C301.603 509.12 329.559 467.282 348.631 421.236Z" fill="white"/>
<path fill-rule="evenodd" clip-rule="evenodd" d="M444.279 648.463C425.207 602.418 415.39 553.066 415.39 503.227L407.684 503.227C407.684 554.078 417.7 604.432 437.16 651.412C456.62 698.393 485.143 741.08 521.1 777.038C557.057 812.995 599.745 841.518 646.725 860.978C693.706 880.438 744.059 890.454 794.911 890.454L794.911 882.748C745.071 882.748 695.72 872.931 649.674 853.858C603.629 834.786 561.791 806.83 526.549 771.589C491.307 736.347 463.352 694.509 444.279 648.463Z" fill="white"/>
<path fill-rule="evenodd" clip-rule="evenodd" d="M348.631 648.463C367.704 602.418 377.521 553.066 377.521 503.227L385.227 503.227C385.227 554.078 375.211 604.432 355.751 651.412C336.291 698.393 307.768 741.08 271.811 777.038C235.853 812.995 193.166 841.518 146.185 860.978C99.2047 880.438 48.8513 890.454 -2.00005 890.454L-2.00005 882.748C47.8393 882.748 97.1907 872.931 143.236 853.858C189.282 834.786 231.12 806.83 266.362 771.589C301.603 736.347 329.559 694.509 348.631 648.463Z" fill="white"/>
<path fill-rule="evenodd" clip-rule="evenodd" d="M444.279 875.69C425.207 829.644 415.39 780.293 415.39 730.454L407.684 730.454C407.684 781.305 417.7 831.658 437.16 878.639C456.62 925.619 485.143 968.307 521.1 1004.26C557.057 1040.22 599.745 1068.74 646.725 1088.2C693.706 1107.66 744.059 1117.68 794.911 1117.68L794.911 1109.97C745.071 1109.97 695.72 1100.16 649.674 1081.09C603.629 1062.01 561.791 1034.06 526.549 998.815C491.307 963.574 463.352 921.735 444.279 875.69Z" fill="white"/>
<path fill-rule="evenodd" clip-rule="evenodd" d="M348.631 875.69C367.704 829.644 377.521 780.293 377.521 730.454L385.227 730.454C385.227 781.305 375.211 831.658 355.751 878.639C336.291 925.619 307.768 968.307 271.811 1004.26C235.853 1040.22 193.166 1068.74 146.185 1088.2C99.2047 1107.66 48.8513 1117.68 -2.00005 1117.68L-2.00005 1109.97C47.8393 1109.97 97.1907 1100.16 143.236 1081.09C189.282 1062.01 231.12 1034.06 266.362 998.815C301.603 963.574 329.559 921.735 348.631 875.69Z" fill="white"/>
<path d="M397.5 11.3574L431.103 115.091L431.887 117.512H434.433L543.203 117.512L455.197 181.647L453.147 183.141L453.928 185.554L487.538 289.309L399.561 225.196L397.5 223.694L395.439 225.196L307.462 289.309L341.072 185.554L341.853 183.141L339.803 181.647L251.797 117.512L360.567 117.512L363.113 117.512L363.897 115.091L397.5 11.3574Z" stroke="white" stroke-width="7"/>
</svg>
