<svg width="590" height="553" viewBox="0 0 590 553" fill="none" xmlns="http://www.w3.org/2000/svg">
<g clip-path="url(#clip0_32_447)">
<path fill-rule="evenodd" clip-rule="evenodd" d="M275.126 71.6097C245.052 84.0668 212.818 90.4784 180.266 90.4784L180.266 95.5115C213.479 95.5115 246.367 88.9697 277.052 76.2596C307.737 63.5496 335.617 44.9202 359.103 21.4351C382.588 -2.05002 401.217 -29.9309 413.927 -60.6157C426.637 -91.3004 433.179 -124.188 433.179 -157.401L428.146 -157.401C428.146 -124.849 421.734 -92.6159 409.277 -62.5417C396.82 -32.4676 378.561 -5.14158 355.544 17.8762C332.526 40.8939 305.2 59.1526 275.126 71.6097Z" fill="white"/>
<path fill-rule="evenodd" clip-rule="evenodd" d="M275.126 133.989C245.052 121.532 212.818 115.121 180.266 115.121L180.266 110.088C213.479 110.088 246.367 116.629 277.052 129.339C307.737 142.05 335.617 160.679 359.103 184.164C382.588 207.649 401.217 235.53 413.927 266.215C426.637 296.9 433.179 329.787 433.179 363L428.146 363C428.146 330.448 421.734 298.215 409.277 268.141C396.82 238.067 378.561 210.741 355.544 187.723C332.526 164.705 305.2 146.447 275.126 133.989Z" fill="white"/>
<path fill-rule="evenodd" clip-rule="evenodd" d="M423.536 71.5179C393.462 83.975 361.229 90.3866 328.677 90.3866L328.677 95.4197C361.89 95.4197 394.778 88.8779 425.462 76.1678C456.147 63.4578 484.028 44.8284 507.513 21.3433C530.998 -2.14182 549.628 -30.0227 562.338 -60.7075C575.048 -91.3922 581.589 -124.28 581.589 -157.493L576.556 -157.493C576.556 -124.941 570.145 -92.7077 557.688 -62.6335C545.231 -32.5594 526.972 -5.23338 503.954 17.7844C480.936 40.8021 453.61 59.0608 423.536 71.5179Z" fill="white"/>
<path fill-rule="evenodd" clip-rule="evenodd" d="M423.536 133.989C393.462 121.532 361.229 115.12 328.677 115.12L328.677 110.087C361.89 110.087 394.778 116.629 425.462 129.339C456.147 142.049 484.028 160.679 507.513 184.164C530.998 207.649 549.628 235.53 562.338 266.215C575.048 296.899 581.589 329.787 581.589 363L576.556 363C576.556 330.448 570.145 298.215 557.688 268.141C545.231 238.067 526.972 210.74 503.954 187.723C480.936 164.705 453.61 146.446 423.536 133.989Z" fill="white"/>
<path fill-rule="evenodd" clip-rule="evenodd" d="M571.947 71.5179C541.873 83.975 509.639 90.3866 477.087 90.3866L477.087 95.4197C510.3 95.4197 543.188 88.8779 573.873 76.1678C604.558 63.4578 632.439 44.8284 655.924 21.3433C679.409 -2.14182 698.038 -30.0227 710.748 -60.7075C723.458 -91.3922 730 -124.28 730 -157.493L724.967 -157.493C724.967 -124.941 718.555 -92.7077 706.098 -62.6335C693.641 -32.5594 675.382 -5.23338 652.365 17.7844C629.347 40.8021 602.021 59.0608 571.947 71.5179Z" fill="white"/>
<path fill-rule="evenodd" clip-rule="evenodd" d="M571.947 133.989C541.873 121.532 509.639 115.12 477.087 115.12L477.087 110.087C510.3 110.087 543.188 116.629 573.873 129.339C604.558 142.049 632.439 160.679 655.924 184.164C679.409 207.649 698.038 235.53 710.748 266.215C723.458 296.899 730 329.787 730 363L724.967 363C724.967 330.448 718.555 298.215 706.098 268.141C693.641 238.067 675.382 210.74 652.365 187.723C629.347 164.705 602.021 146.446 571.947 133.989Z" fill="white"/>
<path d="M11.3574 102.071L75.5443 81.2788L77.9657 80.4944L77.9657 77.9491L77.9657 10.634L117.66 65.1022L119.153 67.1522L121.567 66.3705L185.775 45.5711L146.103 100.01L144.601 102.071L146.103 104.133L185.775 158.571L121.567 137.772L119.153 136.99L117.66 139.04L77.9657 193.508L77.9657 126.193L77.9657 123.648L75.5443 122.864L11.3574 102.071Z" stroke="white" stroke-width="7"/>
</g>
<g opacity="0.8" filter="url(#filter0_f_32_447)">
<circle cx="589.5" cy="-0.5" r="353.5" fill="#F2FD38"/>
</g>
<defs>
<filter id="filter0_f_32_447" x="36" y="-554" width="1107" height="1107" filterUnits="userSpaceOnUse" color-interpolation-filters="sRGB">
<feFlood flood-opacity="0" result="BackgroundImageFix"/>
<feBlend mode="normal" in="SourceGraphic" in2="BackgroundImageFix" result="shape"/>
<feGaussianBlur stdDeviation="100" result="effect1_foregroundBlur_32_447"/>
</filter>
<clipPath id="clip0_32_447">
<rect width="363" height="748" fill="white" transform="translate(0 363) rotate(-90)"/>
</clipPath>
</defs>
</svg>
