<svg width="171" height="186" viewBox="0 0 171 186" fill="none" xmlns="http://www.w3.org/2000/svg">
<g clip-path="url(#clip0_59_252)">
<g clip-path="url(#clip1_59_252)">
<path fill-rule="evenodd" clip-rule="evenodd" d="M79.9699 35.1936C71.2283 38.8145 61.8591 40.6782 52.3972 40.6782L52.3972 42.1411C62.0512 42.1411 71.6106 40.2396 80.5297 36.5452C89.4489 32.8508 97.553 27.4358 104.379 20.6094C111.206 13.783 116.621 5.67891 120.315 -3.2402C124.01 -12.1593 125.911 -21.7188 125.911 -31.3727L124.448 -31.3727C124.448 -21.9109 122.584 -12.5417 118.964 -3.80005C115.343 4.94156 110.035 12.8844 103.345 19.5749C96.6543 26.2655 88.7115 31.5727 79.9699 35.1936Z" fill="white"/>
<path fill-rule="evenodd" clip-rule="evenodd" d="M79.9699 53.3254C71.2283 49.7045 61.8591 47.8409 52.3972 47.8409L52.3972 46.3779C62.0512 46.3779 71.6106 48.2794 80.5297 51.9738C89.4489 55.6683 97.553 61.0832 104.379 67.9096C111.206 74.736 116.621 82.8401 120.315 91.7592C124.01 100.678 125.911 110.238 125.911 119.892L124.448 119.892C124.448 110.43 122.584 101.061 118.964 92.3191C115.343 83.5775 110.035 75.6346 103.345 68.9441C96.6543 62.2536 88.7115 56.9463 79.9699 53.3254Z" fill="white"/>
<path fill-rule="evenodd" clip-rule="evenodd" d="M123.109 35.1672C114.367 38.7881 104.998 40.6518 95.5361 40.6518L95.5361 42.1147C105.19 42.1147 114.75 40.2133 123.669 36.5188C132.588 32.8244 140.692 27.4094 147.518 20.583C154.345 13.7566 159.76 5.65254 163.454 -3.26657C167.148 -12.1857 169.05 -21.7451 169.05 -31.3991L167.587 -31.3991C167.587 -21.9372 165.723 -12.568 162.102 -3.82642C158.482 4.91519 153.174 12.858 146.484 19.5486C139.793 26.2391 131.85 31.5463 123.109 35.1672Z" fill="white"/>
<path fill-rule="evenodd" clip-rule="evenodd" d="M123.109 53.3259C114.367 49.705 104.998 47.8414 95.5361 47.8414L95.5361 46.3784C105.19 46.3784 114.75 48.2799 123.669 51.9743C132.588 55.6687 140.692 61.0837 147.518 67.9101C154.345 74.7365 159.76 82.8406 163.454 91.7597C167.148 100.679 169.05 110.238 169.05 119.892L167.587 119.892C167.587 110.43 165.723 101.061 162.102 92.3196C158.482 83.578 153.174 75.6351 146.484 68.9446C139.793 62.2541 131.85 56.9468 123.109 53.3259Z" fill="white"/>
<path fill-rule="evenodd" clip-rule="evenodd" d="M166.247 35.1675C157.505 38.7884 148.136 40.652 138.674 40.652L138.674 42.115C148.328 42.115 157.888 40.2135 166.807 36.5191C175.726 32.8247 183.83 27.4097 190.656 20.5833C197.483 13.7569 202.898 5.65279 206.592 -3.26632C210.287 -12.1854 212.188 -21.7449 212.188 -31.3988L210.725 -31.3988C210.725 -21.937 208.862 -12.5678 205.241 -3.82617C201.62 4.91544 196.313 12.8583 189.622 19.5488C182.931 26.2394 174.989 31.5466 166.247 35.1675Z" fill="white"/>
<path fill-rule="evenodd" clip-rule="evenodd" d="M166.247 53.3259C157.505 49.705 148.136 47.8414 138.674 47.8414L138.674 46.3784C148.328 46.3784 157.888 48.2799 166.807 51.9743C175.726 55.6687 183.83 61.0837 190.656 67.9101C197.483 74.7365 202.898 82.8406 206.592 91.7597C210.287 100.679 212.188 110.238 212.188 119.892L210.725 119.892C210.725 110.43 208.862 101.061 205.241 92.3196C201.62 83.578 196.313 75.6351 189.622 68.9446C182.931 62.2541 174.989 56.9468 166.247 53.3259Z" fill="white"/>
<path d="M3.30124 44.048L21.9584 38.0043L22.6622 37.7763L22.6622 37.0365L22.6622 17.47L34.2 33.3023L34.6342 33.8981L35.3357 33.6709L53.9991 27.6252L42.4676 43.4488L42.0309 44.048L42.4676 44.6472L53.9991 60.4708L35.3357 54.4251L34.6342 54.1978L34.2 54.7937L22.6622 70.626L22.6622 51.0595L22.6622 50.3197L21.9584 50.0917L3.30124 44.048Z" stroke="white" stroke-width="2.03468"/>
</g>
<g opacity="0.8" filter="url(#filter0_f_59_252)">
<circle cx="171.349" cy="14.2334" r="102.751" fill="#F2FD38"/>
</g>
</g>
<defs>
<filter id="filter0_f_59_252" x="10.4639" y="-146.652" width="321.771" height="321.771" filterUnits="userSpaceOnUse" color-interpolation-filters="sRGB">
<feFlood flood-opacity="0" result="BackgroundImageFix"/>
<feBlend mode="normal" in="SourceGraphic" in2="BackgroundImageFix" result="shape"/>
<feGaussianBlur stdDeviation="29.0669" result="effect1_foregroundBlur_59_252"/>
</filter>
<clipPath id="clip0_59_252">
<rect width="171.434" height="186" fill="white"/>
</clipPath>
<clipPath id="clip1_59_252">
<rect width="119.892" height="217.373" fill="white" transform="translate(0 119.892) rotate(-90)"/>
</clipPath>
</defs>
</svg>
