<svg width="171" height="186" fill="none" xmlns="http://www.w3.org/2000/svg"><g clip-path="url(#a)"><g clip-path="url(#b)"><path fill-rule="evenodd" clip-rule="evenodd" d="M79.97 35.194a72.05 72.05 0 0 1-27.573 5.484v1.463a73.514 73.514 0 0 0 73.514-73.514h-1.463A72.062 72.062 0 0 1 79.97 35.193Zm0 18.131a72.05 72.05 0 0 0-27.573-5.484v-1.463a73.514 73.514 0 0 1 73.514 73.514h-1.463A72.062 72.062 0 0 0 79.97 53.325Zm43.139-18.158a72.053 72.053 0 0 1-27.573 5.485v1.463A73.514 73.514 0 0 0 169.05-31.4h-1.463a72.05 72.05 0 0 1-44.478 66.566Zm0 18.159a72.053 72.053 0 0 0-27.573-5.485v-1.463a73.516 73.516 0 0 1 73.514 73.514h-1.463a72.047 72.047 0 0 0-21.103-50.947 72.063 72.063 0 0 0-23.375-15.62Zm43.138-18.159a72.053 72.053 0 0 1-27.573 5.485v1.463a73.516 73.516 0 0 0 73.514-73.514h-1.463a72.048 72.048 0 0 1-44.478 66.566Zm0 18.159a72.053 72.053 0 0 0-27.573-5.485v-1.463a73.516 73.516 0 0 1 73.514 73.514h-1.463a72.046 72.046 0 0 0-44.478-66.566Z" fill="#fff"/><path d="m3.301 44.048 18.657-6.044.704-.228V17.47L34.2 33.302l.434.596.702-.227 18.663-6.046L42.468 43.45l-.437.599.437.6L53.999 60.47l-18.663-6.046-.702-.227-.434.596-11.538 15.832V50.319l-.704-.227-18.657-6.044Z" stroke="#fff" stroke-width="2.035"/></g><g opacity=".8" filter="url(#c)"><circle cx="171.349" cy="14.233" r="102.751" fill="#F2FD38"/></g></g><defs><clipPath id="a"><path fill="#fff" d="M0 0h171.434v186H0z"/></clipPath><clipPath id="b"><path fill="#fff" transform="rotate(-90 59.946 59.946)" d="M0 0h119.892v217.373H0z"/></clipPath><filter id="c" x="10.464" y="-146.652" width="321.771" height="321.771" filterUnits="userSpaceOnUse" color-interpolation-filters="sRGB"><feFlood flood-opacity="0" result="BackgroundImageFix"/><feBlend in="SourceGraphic" in2="BackgroundImageFix" result="shape"/><feGaussianBlur stdDeviation="29.067" result="effect1_foregroundBlur_59_252"/></filter></defs></svg>