<svg width="590" height="553" fill="none" xmlns="http://www.w3.org/2000/svg"><g clip-path="url(#a)"><path fill-rule="evenodd" clip-rule="evenodd" d="M275.126 71.61a247.882 247.882 0 0 1-94.86 18.868v5.034a252.915 252.915 0 0 0 252.913-252.913h-5.033a247.882 247.882 0 0 1-153.02 229.01Zm0 62.379a247.884 247.884 0 0 0-94.86-18.868v-5.033a252.916 252.916 0 0 1 178.837 74.076A252.91 252.91 0 0 1 433.179 363h-5.033a247.88 247.88 0 0 0-153.02-229.011Zm148.41-62.471a247.877 247.877 0 0 1-94.859 18.869v5.033a252.906 252.906 0 0 0 178.836-74.077 252.915 252.915 0 0 0 74.076-178.836h-5.033a247.882 247.882 0 0 1-72.602 175.277 247.884 247.884 0 0 1-80.418 53.734Zm0 62.471a247.88 247.88 0 0 0-94.859-18.869v-5.033a252.908 252.908 0 0 1 178.836 74.077A252.912 252.912 0 0 1 581.589 363h-5.033a247.879 247.879 0 0 0-153.02-229.011Zm148.411-62.471a247.882 247.882 0 0 1-94.86 18.869v5.033A252.915 252.915 0 0 0 730-157.493h-5.033a247.883 247.883 0 0 1-153.02 229.01Zm0 62.471a247.885 247.885 0 0 0-94.86-18.869v-5.033a252.917 252.917 0 0 1 233.661 156.128A252.908 252.908 0 0 1 730 363h-5.033a247.88 247.88 0 0 0-153.02-229.011Z" fill="#fff"/><path d="m11.357 102.071 64.187-20.792 2.422-.785v-69.86l39.694 54.468 1.493 2.05 2.414-.781 64.208-20.8-39.672 54.439-1.502 2.061 1.502 2.062 39.672 54.438-64.208-20.799-2.414-.782-1.493 2.05-39.694 54.468v-69.86l-2.422-.784-64.187-20.793Z" stroke="#fff" stroke-width="7"/></g><g opacity=".8" filter="url(#b)"><circle cx="589.5" cy="-.5" r="353.5" fill="#F2FD38"/></g><defs><clipPath id="a"><path fill="#fff" transform="matrix(0 -1 1 0 0 363)" d="M0 0h363v748H0z"/></clipPath><filter id="b" x="36" y="-554" width="1107" height="1107" filterUnits="userSpaceOnUse" color-interpolation-filters="sRGB"><feFlood flood-opacity="0" result="BackgroundImageFix"/><feBlend in="SourceGraphic" in2="BackgroundImageFix" result="shape"/><feGaussianBlur stdDeviation="100" result="effect1_foregroundBlur_32_447"/></filter></defs></svg>