<svg width="150" height="48" fill="none" xmlns="http://www.w3.org/2000/svg"><path d="M17.235 12.745h4.021V7s-4.226 0-4.329.005C7.558 7.176 0 14.824 0 24.235c0 9.513 7.723 17.226 17.235 17.235h4.021v-5.746h-4.021A11.502 11.502 0 0 1 6.123 21.423a11.493 11.493 0 0 0 11.112 8.557h4.021v-5.745h-4.021c-3.15 0-5.715-2.594-5.715-5.745 0-3.15 2.565-5.745 5.715-5.745ZM30 27.094v-6.192C30 16.52 32.605 14 37.417 14c2.041 0 3.734.575 5.051 1.698 1.317 1.124 1.988 2.794 1.988 5.07v.274h-4.191v-.274c0-1.972-1.37-2.876-3.117-2.876-1.988 0-2.983.904-2.983 2.712v6.794c0 1.808.995 2.713 2.983 2.713 1.8 0 3.117-.823 3.117-2.877v-.274h4.191v.274c0 2.273-.671 3.971-1.988 5.095C41.151 33.453 39.458 34 37.417 34 32.605 33.998 30 31.483 30 27.094Zm16.874-2.931c0-3.15 2.23-5.311 6.207-5.311 3.976 0 6.18 2.164 6.18 5.311v4.41c0 3.15-2.203 5.343-6.18 5.343s-6.207-2.191-6.207-5.342v-4.411Zm8.572 4.273v-4.075c0-1.178-.86-2-2.369-2-1.585 0-2.391.876-2.391 2v4.081c0 1.124.806 1.973 2.391 1.973 1.509-.006 2.369-.855 2.369-1.979Zm6.797 5.151v-14.41h3.816v14.41h-3.816Zm7.423 0v-14.41h2.176l1.048 1.343a5.732 5.732 0 0 1 1.891-1.256 5.644 5.644 0 0 1 2.22-.416c3.09 0 4.918 2.11 4.918 5.617v9.122h-3.821v-8.904c0-1.534-.807-2.328-1.962-2.328-.995 0-1.882.466-2.66 1.37v9.862h-3.81Zm16.6-1.15c-1.129-.988-1.72-2.247-1.747-3.809h3.709c.236 1.233 1.208 1.836 2.929 1.836 1.156 0 1.854-.384 1.854-1.014 0-.52-.404-.876-1.236-1.096l-3.467-.904c-2.284-.604-3.44-1.89-3.44-3.89 0-2.93 2.096-4.707 5.724-4.707 3.467 0 5.802 1.946 5.912 5.013h-3.681c-.296-1.04-1.129-1.56-2.472-1.56-1.185 0-1.777.355-1.777 1.04 0 .384.377.685 1.129.876l3.708.96c2.204.574 3.305 1.917 3.305 3.971 0 2.987-2.284 4.767-5.91 4.767-1.88-.005-3.379-.498-4.54-1.483Zm13.594 1.15V14.41h8.437c3.359 0 5.375 2.329 5.375 6.028 0 3.698-2.013 6-5.375 6h-4.269v7.15H99.86Zm4.165-10.849h3.493c1.048 0 1.935-.766 1.935-2.3 0-1.535-.887-2.329-1.935-2.329h-3.49l-.003 4.63Zm20.908 10.849-1.047-1.342c-1.156 1.122-2.581 1.67-4.274 1.67-1.343 0-2.471-.383-3.385-1.122-.914-.768-1.371-1.837-1.37-3.206 0-2.986 1.908-4.684 5.697-4.684h2.767v-.794c0-1.179-.672-1.754-2.043-1.754s-2.041.466-2.041 1.424h-3.736c0-2.985 1.989-4.931 5.777-4.931 3.788 0 5.859 1.946 5.859 4.987v9.752h-2.204Zm-1.612-4.357v-1.588h-2.767c-1.264 0-1.882.466-1.882 1.424 0 .845.592 1.425 1.747 1.425 1.182 0 2.15-.41 2.902-1.26Zm7.282 4.357v-14.41h3.816v14.41h-3.816Zm17.224 0-1.048-1.342a5.798 5.798 0 0 1-1.908 1.257 5.712 5.712 0 0 1-2.236.413c-2.902 0-5.025-1.81-5.025-5.287v-4.52c0-1.726.484-3.04 1.421-3.918.94-.903 2.149-1.342 3.601-1.342 1.451 0 2.633.384 3.552 1.178v-5.752H150v19.314h-2.173Zm-1.64-4.548v-5.312c-.887-.904-1.827-1.37-2.767-1.37a1.938 1.938 0 0 0-.769.152 1.977 1.977 0 0 0-1.079 1.114c-.098.25-.145.517-.14.786v3.945A2.026 2.026 0 0 0 142 29.81a1.935 1.935 0 0 0 1.42.597c.94.003 1.88-.463 2.767-1.367Z" fill="#04090F"/></svg>