<svg width="795" height="1118" fill="none" xmlns="http://www.w3.org/2000/svg"><path fill-rule="evenodd" clip-rule="evenodd" d="M444.139 421.236A379.513 379.513 0 0 1 415.25 276h-7.706A387.223 387.223 0 0 0 794.77 663.227v-7.706a379.508 379.508 0 0 1-350.631-234.285Zm-95.508 0A379.514 379.514 0 0 0 377.521 276h7.706a387.224 387.224 0 0 1-239.042 357.751A387.224 387.224 0 0 1-2 663.227v-7.706a379.531 379.531 0 0 0 268.362-111.159 379.52 379.52 0 0 0 82.269-123.126Zm95.648 227.227a379.531 379.531 0 0 1-28.889-145.236h-7.706a387.224 387.224 0 0 0 239.041 357.751 387.23 387.23 0 0 0 148.186 29.476v-7.706a379.519 379.519 0 0 1-350.632-234.285Zm-95.648 0a379.514 379.514 0 0 0 28.89-145.236h7.706a387.224 387.224 0 0 1-239.042 357.751A387.224 387.224 0 0 1-2 890.454v-7.706a379.52 379.52 0 0 0 350.63-234.285Zm95.648 227.227a379.535 379.535 0 0 1-28.889-145.236h-7.706a387.228 387.228 0 0 0 29.476 148.185 387.173 387.173 0 0 0 83.94 125.621 387.184 387.184 0 0 0 125.625 83.94 387.233 387.233 0 0 0 148.186 29.48v-7.71c-49.84 0-99.191-9.81-145.237-28.88a379.607 379.607 0 0 1-123.125-82.275 379.519 379.519 0 0 1-82.27-123.125Zm-95.648 0a379.517 379.517 0 0 0 28.89-145.236h7.706a387.228 387.228 0 0 1-29.476 148.185 387.173 387.173 0 0 1-83.94 125.621 387.189 387.189 0 0 1-125.626 83.94A387.228 387.228 0 0 1-2 1117.68v-7.71c49.84 0 99.19-9.81 145.236-28.88a379.6 379.6 0 0 0 123.126-82.275 379.516 379.516 0 0 0 82.269-123.125Z" fill="#fff"/><path d="m397.5 11.357 33.603 103.734.784 2.421h111.316l-88.006 64.135-2.05 1.494.781 2.413 33.61 103.755-87.977-64.113-2.061-1.502-2.061 1.502-87.977 64.113 33.61-103.755.781-2.413-2.05-1.494-88.006-64.135h111.316l.784-2.421L397.5 11.357Z" stroke="#fff" stroke-width="7"/></svg>