<svg width="180" height="242" fill="none" xmlns="http://www.w3.org/2000/svg"><g opacity=".9" filter="url(#a)"><ellipse rx="58.5" ry="58.638" transform="matrix(-1 0 0 1 120.5 120.681)" fill="#F2FD38"/></g><path opacity=".7" fill-rule="evenodd" clip-rule="evenodd" d="M126.885 108.512a81.729 81.729 0 0 1-31.279 6.222v1.66A83.393 83.393 0 0 0 179 33h-1.659a81.744 81.744 0 0 1-23.94 57.795 81.73 81.73 0 0 1-26.516 17.717Zm0 24.061a81.729 81.729 0 0 0-31.279-6.222v-1.66A83.394 83.394 0 0 1 179 208.085h-1.659a81.743 81.743 0 0 0-23.94-57.795 81.74 81.74 0 0 0-26.516-17.717Z" fill="#fff"/><defs><filter id="a" x="0" y=".043" width="241" height="241.277" filterUnits="userSpaceOnUse" color-interpolation-filters="sRGB"><feFlood flood-opacity="0" result="BackgroundImageFix"/><feBlend in="SourceGraphic" in2="BackgroundImageFix" result="shape"/><feGaussianBlur stdDeviation="31" result="effect1_foregroundBlur_56_210"/></filter></defs></svg>