<svg width="605" height="725" fill="none" xmlns="http://www.w3.org/2000/svg"><g opacity=".9" filter="url(#a)"><ellipse cx="237.5" cy="355.969" rx="237.5" ry="238.061" fill="#F2FD38"/></g><path opacity=".7" fill-rule="evenodd" clip-rule="evenodd" d="M211.579 306.568a331.844 331.844 0 0 0 126.985 25.258v6.738a338.556 338.556 0 0 1-239.4-99.163A338.572 338.572 0 0 1 0 .001h6.738a331.82 331.82 0 0 0 97.189 234.636 331.828 331.828 0 0 0 107.652 71.931Zm0 97.68a331.826 331.826 0 0 1 126.985-25.259v-6.737a338.574 338.574 0 0 0-129.563 25.771 338.576 338.576 0 0 0-183.23 183.23A338.562 338.562 0 0 0 0 710.816h6.738a331.828 331.828 0 0 1 204.841-306.568Z" fill="#fff"/><defs><filter id="a" x="-130" y="-12.092" width="735" height="736.123" filterUnits="userSpaceOnUse" color-interpolation-filters="sRGB"><feFlood flood-opacity="0" result="BackgroundImageFix"/><feBlend in="SourceGraphic" in2="BackgroundImageFix" result="shape"/><feGaussianBlur stdDeviation="65" result="effect1_foregroundBlur_24_283"/></filter></defs></svg>